<?xml version="1.0" encoding="UTF-8"?>
<svg xmlns="http://www.w3.org/2000/svg" xmlns:xlink="http://www.w3.org/1999/xlink" viewBox="0 0 380 588" font-family="'Hiragino Sans', 'Yu Gothic', sans-serif">
  <title>MolPuzzle 解答 #79fdb3b1</title>
  <rect width="100%" height="100%" fill="white"/>
  <style>
    .card-border { fill: none; stroke: #000; stroke-width: 1.0; }
    .stone-C   { fill: #1a1a1a; stroke: #000; stroke-width: 0.8; }
    .stone-H   { fill: #e8e8e8; stroke: #000; stroke-width: 1.0; }
    .stone-O   { fill: #dd3333; stroke: #000; stroke-width: 0.8; }
    .stone-N   { fill: #2860c8; stroke: #000; stroke-width: 0.8; }
    .stone-etc { fill: #f0c020; stroke: #000; stroke-width: 0.8; }
    .title      { font-size: 16px; fill: #222; font-weight: bold; }
    .side-label { font-size: 13px; fill: #333; font-weight: bold; }
    .sub        { font-size: 12px; fill: #444; }
    .conn-label { font-size: 10px; fill: #555; font-weight: bold; }
    .card-formula { font-size: 13px; fill: #111; font-weight: bold; font-family: monospace; }
    .card-name   { font-size: 10px; fill: #333; }
    .card-level  { font-size: 9px; fill: #888; }
  </style>
  <text x="20" y="38" class="title">パズル #79fdb3b1　解答</text>
  <rect x="2" y="34" width="100" height="166" class="card-border" style="fill:#fff" rx="3"/>
  <text x="97" y="46" class="card-level" text-anchor="end">Lv2</text>
  <text x="52.0" y="107.04" class="card-formula" text-anchor="middle">C5H5N5</text>
  <line x1="10" y1="123.64" x2="94" y2="123.64" stroke="#ccc" stroke-width="0.8"/>
  <text x="52.0" y="146.88" class="card-name" text-anchor="middle">アデニン</text>
  <rect x="120" y="52" width="100" height="166" class="card-border" style="fill:#fff" rx="3"/>
  <text x="215" y="64" class="card-level" text-anchor="end">Lv3</text>
  <text x="170.0" y="125.04" class="card-formula" text-anchor="middle">C8H11NO3</text>
  <line x1="128" y1="141.64" x2="212" y2="141.64" stroke="#ccc" stroke-width="0.8"/>
  <text x="170.0" y="156.57999999999998" class="card-name" text-anchor="middle">ノルアド</text>
  <text x="170.0" y="178.16" class="card-name" text-anchor="middle">レナリン</text>
  <rect x="220" y="52" width="100" height="166" class="card-border" style="fill:#fff" rx="3"/>
  <text x="315" y="64" class="card-level" text-anchor="end">Lv1</text>
  <text x="270.0" y="125.04" class="card-formula" text-anchor="middle">O3</text>
  <line x1="228" y1="141.64" x2="312" y2="141.64" stroke="#ccc" stroke-width="0.8"/>
  <text x="270.0" y="164.88" class="card-name" text-anchor="middle">オゾン</text>
  <rect x="20" y="218" width="100" height="166" class="card-border" style="fill:#fff" rx="3"/>
  <text x="115" y="230" class="card-level" text-anchor="end">Lv2</text>
  <text x="70.0" y="291.04" class="card-formula" text-anchor="middle">C3H6N6</text>
  <line x1="28" y1="307.64" x2="112" y2="307.64" stroke="#ccc" stroke-width="0.8"/>
  <text x="70.0" y="330.88" class="card-name" text-anchor="middle">メラミン</text>
  <rect x="120" y="218" width="100" height="166" class="card-border" style="fill:#fff" rx="3"/>
  <text x="215" y="230" class="card-level" text-anchor="end">Lv2</text>
  <text x="170.0" y="291.04" class="card-formula" text-anchor="middle">C3H8O3</text>
  <line x1="128" y1="307.64" x2="212" y2="307.64" stroke="#ccc" stroke-width="0.8"/>
  <text x="170.0" y="330.88" class="card-name" text-anchor="middle">グリセリン</text>
  <rect x="220" y="218" width="100" height="166" class="card-border" style="fill:#fff" rx="3"/>
  <text x="315" y="230" class="card-level" text-anchor="end">Lv3</text>
  <text x="270.0" y="291.04" class="card-formula" text-anchor="middle">C9H13NO3</text>
  <line x1="228" y1="307.64" x2="312" y2="307.64" stroke="#ccc" stroke-width="0.8"/>
  <text x="270.0" y="330.88" class="card-name" text-anchor="middle">アドレナリン</text>
  <rect x="20" y="402" width="100" height="166" class="card-border" style="fill:#fff" rx="3"/>
  <text x="115" y="414" class="card-level" text-anchor="end">Lv2</text>
  <text x="70.0" y="475.04" class="card-formula" text-anchor="middle">CH2O2</text>
  <line x1="28" y1="491.64" x2="112" y2="491.64" stroke="#ccc" stroke-width="0.8"/>
  <text x="70.0" y="514.88" class="card-name" text-anchor="middle">ギ酸</text>
  <rect x="120" y="402" width="100" height="166" class="card-border" style="fill:#fff" rx="3"/>
  <text x="215" y="414" class="card-level" text-anchor="end">Lv1</text>
  <text x="170.0" y="475.04" class="card-formula" text-anchor="middle">-NO2</text>
  <line x1="128" y1="491.64" x2="212" y2="491.64" stroke="#ccc" stroke-width="0.8"/>
  <text x="170.0" y="514.88" class="card-name" text-anchor="middle">ニトロ基</text>
  <rect x="220" y="384" width="100" height="166" class="card-border" style="fill:#fff" rx="3"/>
  <text x="315" y="396" class="card-level" text-anchor="end">Lv1</text>
  <text x="270.0" y="457.04" class="card-formula" text-anchor="middle">NH3</text>
  <line x1="228" y1="473.64" x2="312" y2="473.64" stroke="#ccc" stroke-width="0.8"/>
  <text x="270.0" y="496.88" class="card-name" text-anchor="middle">アンモニア</text>
  <circle cx="111.0" cy="108.0" r="7" class="stone-C"/>
  <circle cx="111.0" cy="126.0" r="7" class="stone-C"/>
  <circle cx="111.0" cy="144.0" r="7" class="stone-C"/>
  <circle cx="61.0" cy="209.0" r="7" class="stone-H"/>
  <circle cx="61.0" cy="393.0" r="7" class="stone-C"/>
  <circle cx="79.0" cy="393.0" r="7" class="stone-C"/>
  <circle cx="170.0" cy="393.0" r="7" class="stone-O"/>
</svg>
