<?xml version="1.0" encoding="UTF-8"?>
<svg xmlns="http://www.w3.org/2000/svg" xmlns:xlink="http://www.w3.org/1999/xlink" viewBox="0 0 380 606" font-family="'Hiragino Sans', 'Yu Gothic', sans-serif">
  <title>MolPuzzle 解答 #e8dd5e25</title>
  <style>
    .card-border { fill: none; stroke: #000; stroke-width: 1.0; }
    .stone-C   { fill: #1a1a1a; stroke: #000; stroke-width: 0.8; }
    .stone-H   { fill: #e8e8e8; stroke: #000; stroke-width: 1.0; }
    .stone-O   { fill: #dd3333; stroke: #000; stroke-width: 0.8; }
    .stone-N   { fill: #2860c8; stroke: #000; stroke-width: 0.8; }
    .stone-etc { fill: #f0c020; stroke: #000; stroke-width: 0.8; }
    .title      { font-size: 16px; fill: #222; font-weight: bold; }
    .side-label { font-size: 13px; fill: #333; font-weight: bold; }
    .sub        { font-size: 12px; fill: #444; }
    .conn-label { font-size: 10px; fill: #555; font-weight: bold; }
    .card-formula { font-size: 13px; fill: #111; font-weight: bold; font-family: monospace; }
    .card-name   { font-size: 10px; fill: #333; }
    .card-level  { font-size: 9px; fill: #888; }
  </style>
  <text x="20" y="38" class="title">パズル #e8dd5e25　解答</text>
  <rect x="20" y="70" width="100" height="166" class="card-border" style="fill:#fff" rx="3"/>
  <text x="115" y="82" class="card-level" text-anchor="end">Lv1</text>
  <text x="70.0" y="143.04000000000002" class="card-formula" text-anchor="middle">-NO2</text>
  <line x1="28" y1="159.64" x2="112" y2="159.64" stroke="#ccc" stroke-width="0.8"/>
  <text x="70.0" y="182.88" class="card-name" text-anchor="middle">ニトロ基</text>
  <rect x="120" y="52" width="100" height="166" class="card-border" style="fill:#fff" rx="3"/>
  <text x="215" y="64" class="card-level" text-anchor="end">Lv3</text>
  <text x="170.0" y="125.04" class="card-formula" text-anchor="middle">C9H13NO3</text>
  <line x1="128" y1="141.64" x2="212" y2="141.64" stroke="#ccc" stroke-width="0.8"/>
  <text x="170.0" y="164.88" class="card-name" text-anchor="middle">アドレナリン</text>
  <rect x="238" y="52" width="100" height="166" class="card-border" style="fill:#fff" rx="3"/>
  <text x="333" y="64" class="card-level" text-anchor="end">Lv1</text>
  <text x="288.0" y="125.04" class="card-formula" text-anchor="middle">N2</text>
  <line x1="246" y1="141.64" x2="330" y2="141.64" stroke="#ccc" stroke-width="0.8"/>
  <text x="288.0" y="164.88" class="card-name" text-anchor="middle">窒素分子</text>
  <rect x="20" y="236" width="100" height="166" class="card-border" style="fill:#fff" rx="3"/>
  <text x="115" y="248" class="card-level" text-anchor="end">Lv1</text>
  <text x="70.0" y="309.04" class="card-formula" text-anchor="middle">O2</text>
  <line x1="28" y1="325.64" x2="112" y2="325.64" stroke="#ccc" stroke-width="0.8"/>
  <text x="70.0" y="348.88" class="card-name" text-anchor="middle">酸素分子</text>
  <rect x="120" y="236" width="100" height="166" class="card-border" style="fill:#fff" rx="3"/>
  <text x="215" y="248" class="card-level" text-anchor="end">Lv1</text>
  <text x="170.0" y="309.04" class="card-formula" text-anchor="middle">H2O2</text>
  <line x1="128" y1="325.64" x2="212" y2="325.64" stroke="#ccc" stroke-width="0.8"/>
  <text x="170.0" y="348.88" class="card-name" text-anchor="middle">過酸化水素</text>
  <rect x="238" y="236" width="100" height="166" class="card-border" style="fill:#fff" rx="3"/>
  <text x="333" y="248" class="card-level" text-anchor="end">Lv2</text>
  <text x="288.0" y="309.04" class="card-formula" text-anchor="middle">C4H9NO3</text>
  <line x1="246" y1="325.64" x2="330" y2="325.64" stroke="#ccc" stroke-width="0.8"/>
  <text x="288.0" y="348.88" class="card-name" text-anchor="middle">トレオニン</text>
  <rect x="2" y="420" width="100" height="166" class="card-border" style="fill:#fff" rx="3"/>
  <text x="97" y="432" class="card-level" text-anchor="end">Lv1</text>
  <text x="52.0" y="493.04" class="card-formula" text-anchor="middle">H2O</text>
  <line x1="10" y1="509.64" x2="94" y2="509.64" stroke="#ccc" stroke-width="0.8"/>
  <text x="52.0" y="532.88" class="card-name" text-anchor="middle">水</text>
  <rect x="120" y="420" width="100" height="166" class="card-border" style="fill:#fff" rx="3"/>
  <text x="215" y="432" class="card-level" text-anchor="end">Lv2</text>
  <text x="170.0" y="493.04" class="card-formula" text-anchor="middle">CH4</text>
  <line x1="128" y1="509.64" x2="212" y2="509.64" stroke="#ccc" stroke-width="0.8"/>
  <text x="170.0" y="532.88" class="card-name" text-anchor="middle">メタン</text>
  <rect x="238" y="402" width="100" height="166" class="card-border" style="fill:#fff" rx="3"/>
  <text x="333" y="414" class="card-level" text-anchor="end">Lv2</text>
  <text x="288.0" y="475.04" class="card-formula" text-anchor="middle">C4H6O6</text>
  <line x1="246" y1="491.64" x2="330" y2="491.64" stroke="#ccc" stroke-width="0.8"/>
  <text x="288.0" y="514.88" class="card-name" text-anchor="middle">酒石酸</text>
  <circle cx="229.0" cy="135.0" r="7" class="stone-N"/>
  <circle cx="229.0" cy="319.0" r="7" class="stone-O"/>
  <circle cx="111.0" cy="494.0" r="7" class="stone-H"/>
  <circle cx="111.0" cy="512.0" r="7" class="stone-H"/>
  <circle cx="229.0" cy="485.0" r="7" class="stone-H"/>
  <circle cx="229.0" cy="503.0" r="7" class="stone-H"/>
  <circle cx="170.0" cy="227.0" r="7" class="stone-O"/>
  <circle cx="288.0" cy="227.0" r="7" class="stone-N"/>
  <circle cx="61.0" cy="411.0" r="7" class="stone-O"/>
  <circle cx="161.0" cy="411.0" r="7" class="stone-H"/>
  <circle cx="179.0" cy="411.0" r="7" class="stone-H"/>
</svg>
