<?xml version="1.0" encoding="UTF-8"?>
<svg xmlns="http://www.w3.org/2000/svg" xmlns:xlink="http://www.w3.org/1999/xlink" viewBox="0 0 380 588" font-family="'Hiragino Sans', 'Yu Gothic', sans-serif">
  <title>MolPuzzle 解答 #fb0c46bb</title>
  <style>
    .card-border { fill: none; stroke: #000; stroke-width: 1.0; }
    .stone-C   { fill: #1a1a1a; stroke: #000; stroke-width: 0.8; }
    .stone-H   { fill: #e8e8e8; stroke: #000; stroke-width: 1.0; }
    .stone-O   { fill: #dd3333; stroke: #000; stroke-width: 0.8; }
    .stone-N   { fill: #2860c8; stroke: #000; stroke-width: 0.8; }
    .stone-etc { fill: #f0c020; stroke: #000; stroke-width: 0.8; }
    .title      { font-size: 16px; fill: #222; font-weight: bold; }
    .side-label { font-size: 13px; fill: #333; font-weight: bold; }
    .sub        { font-size: 12px; fill: #444; }
    .conn-label { font-size: 10px; fill: #555; font-weight: bold; }
    .card-formula { font-size: 13px; fill: #111; font-weight: bold; font-family: monospace; }
    .card-name   { font-size: 10px; fill: #333; }
    .card-level  { font-size: 9px; fill: #888; }
  </style>
  <text x="20" y="38" class="title">パズル #fb0c46bb　解答</text>
  <rect x="38" y="34" width="100" height="166" class="card-border" style="fill:#fff" rx="3"/>
  <text x="133" y="46" class="card-level" text-anchor="end">Lv1</text>
  <text x="88.0" y="107.04" class="card-formula" text-anchor="middle">SO2</text>
  <line x1="46" y1="123.64" x2="130" y2="123.64" stroke="#ccc" stroke-width="0.8"/>
  <text x="88.0" y="146.88" class="card-name" text-anchor="middle">二酸化硫黄</text>
  <rect x="138" y="52" width="100" height="166" class="card-border" style="fill:#fff" rx="3"/>
  <text x="233" y="64" class="card-level" text-anchor="end">Lv1</text>
  <text x="188.0" y="125.04" class="card-formula" text-anchor="middle">H2S</text>
  <line x1="146" y1="141.64" x2="230" y2="141.64" stroke="#ccc" stroke-width="0.8"/>
  <text x="188.0" y="164.88" class="card-name" text-anchor="middle">硫化水素</text>
  <rect x="256" y="52" width="100" height="166" class="card-border" style="fill:#fff" rx="3"/>
  <text x="351" y="64" class="card-level" text-anchor="end">Lv1</text>
  <text x="306.0" y="125.04" class="card-formula" text-anchor="middle">-OH</text>
  <line x1="264" y1="141.64" x2="348" y2="141.64" stroke="#ccc" stroke-width="0.8"/>
  <text x="306.0" y="164.88" class="card-name" text-anchor="middle">ヒドロキシ基</text>
  <rect x="20" y="218" width="100" height="166" class="card-border" style="fill:#fff" rx="3"/>
  <text x="115" y="230" class="card-level" text-anchor="end">Lv2</text>
  <text x="70.0" y="291.04" class="card-formula" text-anchor="middle">C3H6O3</text>
  <line x1="28" y1="307.64" x2="112" y2="307.64" stroke="#ccc" stroke-width="0.8"/>
  <text x="70.0" y="330.88" class="card-name" text-anchor="middle">乳酸</text>
  <rect x="138" y="218" width="100" height="166" class="card-border" style="fill:#fff" rx="3"/>
  <text x="233" y="230" class="card-level" text-anchor="end">Lv2</text>
  <text x="188.0" y="291.04" class="card-formula" text-anchor="middle">C2H3Cl</text>
  <line x1="146" y1="307.64" x2="230" y2="307.64" stroke="#ccc" stroke-width="0.8"/>
  <text x="188.0" y="330.88" class="card-name" text-anchor="middle">塩化ビニル</text>
  <rect x="256" y="218" width="100" height="166" class="card-border" style="fill:#fff" rx="3"/>
  <text x="351" y="230" class="card-level" text-anchor="end">Lv1</text>
  <text x="306.0" y="291.04" class="card-formula" text-anchor="middle">-CHO</text>
  <line x1="264" y1="307.64" x2="348" y2="307.64" stroke="#ccc" stroke-width="0.8"/>
  <text x="306.0" y="330.88" class="card-name" text-anchor="middle">アルデヒド基</text>
  <rect x="38" y="402" width="100" height="166" class="card-border" style="fill:#fff" rx="3"/>
  <text x="133" y="414" class="card-level" text-anchor="end">Lv3</text>
  <text x="88.0" y="475.04" class="card-formula" text-anchor="middle">C6H8O7</text>
  <line x1="46" y1="491.64" x2="130" y2="491.64" stroke="#ccc" stroke-width="0.8"/>
  <text x="88.0" y="514.88" class="card-name" text-anchor="middle">クエン酸</text>
  <rect x="138" y="402" width="100" height="166" class="card-border" style="fill:#fff" rx="3"/>
  <text x="233" y="414" class="card-level" text-anchor="end">Lv3</text>
  <text x="188.0" y="475.04" class="card-formula" text-anchor="middle">C6H12O6</text>
  <line x1="146" y1="491.64" x2="230" y2="491.64" stroke="#ccc" stroke-width="0.8"/>
  <text x="188.0" y="514.88" class="card-name" text-anchor="middle">グルコース</text>
  <rect x="256" y="402" width="100" height="166" class="card-border" style="fill:#fff" rx="3"/>
  <text x="351" y="414" class="card-level" text-anchor="end">Lv3</text>
  <text x="306.0" y="475.04" class="card-formula" text-anchor="middle">C8H11NO3</text>
  <line x1="264" y1="491.64" x2="348" y2="491.64" stroke="#ccc" stroke-width="0.8"/>
  <text x="306.0" y="506.58" class="card-name" text-anchor="middle">ノルアド</text>
  <text x="306.0" y="528.16" class="card-name" text-anchor="middle">レナリン</text>
  <circle cx="247.0" cy="135.0" r="7" class="stone-H"/>
  <circle cx="129.0" cy="301.0" r="7" class="stone-C"/>
  <circle cx="247.0" cy="301.0" r="7" class="stone-C"/>
  <circle cx="247.0" cy="485.0" r="7" class="stone-H"/>
  <circle cx="79.0" cy="209.0" r="7" class="stone-O"/>
  <circle cx="70.0" cy="393.0" r="7" class="stone-H"/>
  <circle cx="88.0" cy="393.0" r="7" class="stone-H"/>
  <circle cx="161.0" cy="393.0" r="7" class="stone-C"/>
  <circle cx="179.0" cy="393.0" r="7" class="stone-C"/>
  <circle cx="197.0" cy="393.0" r="7" class="stone-C"/>
  <circle cx="215.0" cy="393.0" r="7" class="stone-C"/>
  <circle cx="297.0" cy="393.0" r="7" class="stone-O"/>
  <circle cx="315.0" cy="393.0" r="7" class="stone-O"/>
</svg>
